<?xml version="1.0" encoding="UTF-8" standalone="no"?>
<!-- Created with Inkscape (http://www.inkscape.org/) -->

<svg
   xmlns:dc="http://purl.org/dc/elements/1.1/"
   xmlns:cc="http://creativecommons.org/ns#"
   xmlns:rdf="http://www.w3.org/1999/02/22-rdf-syntax-ns#"
   xmlns:svg="http://www.w3.org/2000/svg"
   xmlns="http://www.w3.org/2000/svg"
   xmlns:sodipodi="http://sodipodi.sourceforge.net/DTD/sodipodi-0.dtd"
   xmlns:inkscape="http://www.inkscape.org/namespaces/inkscape"
   width="123.49702mm"
   height="123.49702mm"
   viewBox="0 0 123.49705 123.49705"
   version="1.1"
   id="svg5"
   inkscape:version="0.92.5 (2060ec1f9f, 2020-04-08)"
   sodipodi:docname="stop_1.svg">
  <metadata
     id="metadata10">
    <rdf:RDF>
      <cc:Work
         rdf:about="">
        <dc:format>image/svg+xml</dc:format>
        <dc:type
           rdf:resource="http://purl.org/dc/dcmitype/StillImage" />
        <dc:title></dc:title>
      </cc:Work>
    </rdf:RDF>
  </metadata>
  <sodipodi:namedview
     id="namedview7"
     pagecolor="#505050"
     bordercolor="#eeeeee"
     borderopacity="1"
     inkscape:pageshadow="0"
     inkscape:pageopacity="0"
     inkscape:pagecheckerboard="0"
     inkscape:document-units="mm"
     showgrid="false"
     fit-margin-top="15"
     fit-margin-left="15"
     fit-margin-right="15"
     fit-margin-bottom="15"
     lock-margins="false"
     width="107.89702mm"
     inkscape:zoom="0.74029882"
     inkscape:cx="43.901183"
     inkscape:cy="190.46363"
     inkscape:window-width="1528"
     inkscape:window-height="836"
     inkscape:window-x="72"
     inkscape:window-y="27"
     inkscape:window-maximized="1"
     inkscape:current-layer="layer1" />
  <defs
     id="defs2">
    <filter
       inkscape:collect="always"
       style="color-interpolation-filters:sRGB"
       id="filter857"
       x="-0.15550686"
       width="1.3110137"
       y="-0.15409954"
       height="1.3081991">
      <feGaussianBlur
         inkscape:collect="always"
         stdDeviation="5.0715162"
         id="feGaussianBlur859" />
    </filter>
  </defs>
  <g
     inkscape:label="Layer 1"
     inkscape:groupmode="layer"
     id="layer1"
     transform="translate(-38.877594,-60.209427)">
    <rect
       style="fill:#000000;fill-opacity:1;stroke:#030000;stroke-width:2.91199994;stroke-miterlimit:4;stroke-dasharray:none;stroke-opacity:1;filter:url(#filter857)"
       id="rect838-3"
       width="78.270752"
       height="78.985565"
       x="67.648354"
       y="88.816544" />
    <rect
       style="fill:#000000;fill-opacity:1;stroke:#030000;stroke-width:2.91199994;stroke-miterlimit:4;stroke-dasharray:none;stroke-opacity:1"
       id="rect838"
       width="78.270752"
       height="78.985558"
       x="61.490726"
       y="82.465157" />
    <g
       aria-label="REC"
       transform="matrix(0.35255889,0,0,0.36302812,23.140958,48.130637)"
       style="font-style:normal;font-variant:normal;font-weight:bold;font-stretch:normal;font-size:96px;line-height:1.25;font-family:sans-serif;-inkscape-font-specification:'sans-serif Bold';letter-spacing:0px;word-spacing:0px;fill:#000000;fill-opacity:1;stroke:none"
       id="flowRoot861">
      <path
         d="m 147.91992,199.35742 q 5.67188,0 8.10938,-2.10937 2.48437,-2.10938 2.48437,-6.9375 0,-4.78125 -2.48437,-6.84375 -2.4375,-2.0625 -8.10938,-2.0625 h -7.59375 v 17.95312 z m -7.59375,12.46875 v 26.48438 H 122.2793 v -69.98438 h 27.5625 q 13.82812,0 20.25,4.64063 6.46875,4.64062 6.46875,14.67187 0,6.9375 -3.375,11.39063 -3.32813,4.45312 -10.07813,6.5625 3.70313,0.84375 6.60938,3.84375 2.95312,2.95312 5.95312,9 l 9.79688,19.875 h -19.21875 l -8.53125,-17.39063 q -2.57813,-5.25 -5.25,-7.17187 -2.625,-1.92188 -7.03125,-1.92188 z"
         id="path869"
         inkscape:connector-curvature="0"
         style="fill:#ffffff" />
      <path
         d="m 196.20117,168.32617 h 48.70313 v 13.64063 h -30.65625 v 13.03125 h 28.82812 v 13.64062 h -28.82812 v 16.03125 h 31.6875 v 13.64063 h -49.73438 z"
         id="path871"
         inkscape:connector-curvature="0"
         style="fill:#ffffff" />
      <path
         d="m 317.2793,234.4668 q -4.96875,2.57812 -10.35938,3.89062 -5.39062,1.3125 -11.25,1.3125 -17.48437,0 -27.70312,-9.75 -10.21875,-9.79687 -10.21875,-26.53125 0,-16.78125 10.21875,-26.53125 10.21875,-9.79687 27.70312,-9.79687 5.85938,0 11.25,1.3125 5.39063,1.3125 10.35938,3.89062 v 14.48438 q -5.01563,-3.42188 -9.89063,-5.01563 -4.875,-1.59375 -10.26562,-1.59375 -9.65625,0 -15.1875,6.1875 -5.53125,6.1875 -5.53125,17.0625 0,10.82813 5.53125,17.01563 5.53125,6.1875 15.1875,6.1875 5.39062,0 10.26562,-1.59375 4.875,-1.59375 9.89063,-5.01563 z"
         id="path873"
         inkscape:connector-curvature="0"
         style="fill:#ffffff" />
    </g>
  </g>
</svg>
